HIERARCHY
ROOT root
{
	OFFSET 0.000000 0.000000 0.000000
	CHANNELS 6 Xposition Yposition Zposition Zrotation Yrotation Xrotation
	JOINT lhip
	{
		OFFSET 0.058581 -0.082280 -0.017664
		CHANNELS 3 Zrotation Yrotation Xrotation
		JOINT lknee
		{
			OFFSET 0.043451 -0.386469 0.008037
			CHANNELS 3 Zrotation Yrotation Xrotation
			JOINT lankle
			{
				OFFSET -0.014790 -0.426874 -0.037428
				CHANNELS 3 Zrotation Yrotation Xrotation
				JOINT ltoe
				{
					OFFSET 0.041054 -0.060286 0.122042
					CHANNELS 3 Zrotation Yrotation Xrotation
					End Site
					{
						OFFSET 0.000000 0.000000 0.000000
					}
				}
			}
		}
	}
	JOINT rhip
	{
		OFFSET -0.060310 -0.090513 -0.013543
		CHANNELS 3 Zrotation Yrotation Xrotation
		JOINT rknee
		{
			OFFSET -0.043257 -0.383688 -0.004843
			CHANNELS 3 Zrotation Yrotation Xrotation
			JOINT rankle
			{
				OFFSET 0.019056 -0.420046 -0.034562
				CHANNELS 3 Zrotation Yrotation Xrotation
				JOINT rtoe
				{
					OFFSET -0.034840 -0.062106 0.130323
					CHANNELS 3 Zrotation Yrotation Xrotation
					End Site
					{
						OFFSET 0.000000 0.000000 0.000000
					}
				}
			}
		}
	}
	JOINT lowerback
	{
		OFFSET 0.004439 0.124404 -0.038385
		CHANNELS 3 Zrotation Yrotation Xrotation
		JOINT upperback
		{
			OFFSET 0.004488 0.137956 0.026820
			CHANNELS 3 Zrotation Yrotation Xrotation
			JOINT chest
			{
				OFFSET -0.002265 0.056032 0.002855
				CHANNELS 3 Zrotation Yrotation Xrotation
				JOINT lowerneck
				{
					OFFSET -0.013390 0.211636 -0.033468
					CHANNELS 3 Zrotation Yrotation Xrotation
					JOINT upperneck
					{
						OFFSET 0.010113 0.088937 0.050410
						CHANNELS 3 Zrotation Yrotation Xrotation
						End Site
						{
							OFFSET 0.000000 0.000000 0.000000
						}
					}
				}
				JOINT lclavicle
				{
					OFFSET 0.071702 0.114000 -0.018898
					CHANNELS 3 Zrotation Yrotation Xrotation
					JOINT lshoulder
					{
						OFFSET 0.122921 0.045205 -0.019046
						CHANNELS 3 Zrotation Yrotation Xrotation
						JOINT lelbow
						{
							OFFSET 0.255332 -0.015649 -0.022946
							CHANNELS 3 Zrotation Yrotation Xrotation
							JOINT lwrist
							{
								OFFSET 0.265709 0.012698 -0.007375
								CHANNELS 3 Zrotation Yrotation Xrotation
								End Site
								{
									OFFSET 0.000000 0.000000 0.000000
								}
							}
						}
					}
				}
				JOINT rclavicle
				{
					OFFSET -0.082954 0.112472 -0.023707
					CHANNELS 3 Zrotation Yrotation Xrotation
					JOINT rshoulder
					{
						OFFSET -0.113228 0.046853 -0.008472
						CHANNELS 3 Zrotation Yrotation Xrotation
						JOINT relbow
						{
							OFFSET -0.260127 -0.014369 -0.031269
							CHANNELS 3 Zrotation Yrotation Xrotation
							JOINT rwrist
							{
								OFFSET -0.269108 0.006794 -0.006027
								CHANNELS 3 Zrotation Yrotation Xrotation
								End Site
								{
									OFFSET 0.000000 0.000000 0.000000
								}
							}
						}
					}
				}
			}
		}
	}
}
MOTION
Frames: 16
Frame Time: 0.033333
0.349169 2.542076 1.002442 -2.699707 -0.333983 88.097509 -4.061933 -0.210663 0.884706 -1.876867 -9.126103 6.057974 7.534545 9.276316 -20.556633 0.000000 -0.000000 0.000000 1.026423 -1.659076 -3.025594 0.724485 -0.341414 12.903310 3.361587 -9.011592 -10.290181 0.000000 -0.000000 0.000000 0.858639 0.810079 7.097817 0.024171 -1.108125 -3.519922 -0.125498 -1.105500 4.029731 2.933829 2.664456 -13.836541 0.913010 -2.799650 -4.557371 -23.626277 3.398668 0.821895 -53.416528 -2.557695 10.947314 2.082512 -29.996142 22.247240 -5.621009 -7.065329 1.656012 23.114897 0.982657 -2.755730 53.718171 5.530183 12.515481 -9.315340 24.498693 0.951717 5.204225 2.684473 -5.006261 
0.348481 2.541235 1.001389 -2.487407 -0.359437 88.076868 -4.160609 -0.260848 1.039265 -1.706112 -9.309638 5.761937 7.515751 9.348242 -20.281652 0.000000 -0.000000 0.000000 1.134218 -1.699039 -2.926652 0.634073 -0.392071 12.745339 3.065452 -9.162025 -9.769302 0.000000 -0.000000 0.000000 0.794235 0.825793 7.236355 0.089472 -1.171977 -3.190012 -0.148461 -1.135754 3.120187 2.842662 2.582320 -12.900785 0.927133 -2.562245 -4.656006 -23.197366 2.961683 1.468987 -53.603307 -2.390399 10.840966 2.589315 -30.176603 21.720556 -5.503923 -7.039393 1.169820 22.944141 1.273991 -2.030486 53.893172 5.515128 12.360012 -9.698014 24.661524 0.430182 5.171418 2.688080 -5.534424 
0.347684 2.540595 1.000758 -2.132425 -0.353637 88.040093 -4.159968 -0.319001 1.118365 -1.618079 -9.429889 5.653631 7.384681 9.312842 -20.122406 0.000000 -0.000000 0.000000 1.277227 -1.825356 -2.762442 0.527034 -0.406505 12.577996 3.149136 -9.369756 -9.495705 0.000000 -0.000000 0.000000 0.851797 0.603265 7.699480 -0.028394 -1.309731 -3.185705 -0.145911 -1.138931 3.014119 2.611735 2.864039 -13.959066 0.971530 -2.492065 -4.345690 -22.838417 3.492898 0.858103 -53.403195 -2.460112 10.775358 2.214375 -30.525838 22.023470 -5.068070 -7.108079 1.090914 22.877648 1.145177 -2.369330 54.081685 5.496992 12.520797 -9.627756 24.942329 0.412994 4.992323 2.788096 -5.316161 
0.346685 2.540138 0.999786 -1.722006 -0.293613 88.017262 -4.044096 -0.459576 1.117874 -1.631598 -9.591276 5.611808 7.210785 9.300249 -19.976123 0.000000 -0.000000 0.000000 1.459460 -1.939376 -2.638120 0.517121 -0.360554 12.436879 3.160513 -9.686564 -9.400368 0.000000 -0.000000 0.000000 0.665484 0.898316 7.635193 0.111302 -1.128915 -2.524184 0.153811 -1.589891 2.919375 2.215211 2.856479 -14.514874 0.908506 -2.465070 -4.327007 -22.607974 3.207934 0.729462 -53.256264 -2.944213 10.614309 2.419115 -30.997729 21.598956 -4.728939 -7.120515 0.818993 22.597514 1.049962 -2.544555 54.193575 5.430743 12.515317 -9.556525 25.359751 0.386059 5.049113 2.781992 -5.376701 
0.346044 2.539869 0.999312 -1.539224 -0.266956 88.028150 -3.981078 -0.548475 1.111949 -1.643225 -9.710602 5.568380 7.159246 9.322791 -19.928660 0.000000 -0.000000 0.000000 1.544146 -2.005947 -2.630423 0.521090 -0.375545 12.420147 3.135409 -9.777933 -9.406481 0.000000 -0.000000 0.000000 0.547850 1.019133 7.571601 0.185778 -1.072379 -2.272870 0.295989 -1.723859 2.900823 2.009450 2.847561 -14.475822 0.910007 -2.425836 -4.433917 -22.452675 2.966179 0.806075 -53.115487 -3.187541 10.493173 2.654277 -31.429172 21.152633 -4.484681 -7.058823 0.528752 22.516834 1.110512 -2.445705 54.271121 5.340002 12.478293 -9.530345 25.517635 0.393580 5.115330 2.703143 -5.457523 
0.345228 2.539579 0.998368 -1.427793 -0.236677 87.915190 -3.935491 -0.759876 1.329118 -1.601133 -9.770608 5.344322 7.124501 9.417931 -19.827870 0.000000 -0.000000 0.000000 1.649276 -2.030924 -2.525607 0.527873 -0.418683 12.424150 2.899913 -9.839095 -9.467383 0.000000 -0.000000 0.000000 0.373697 1.130467 6.935048 0.335499 -1.226124 -1.214701 0.353527 -1.532077 2.845411 1.896892 2.873569 -13.598599 0.947283 -2.348074 -4.896958 -22.026837 1.964535 1.483515 -53.134750 -3.628748 10.310591 3.610277 -31.998334 19.796249 -4.210713 -6.878610 -0.290496 22.483446 1.781853 -1.807407 54.460692 5.403537 12.289785 -9.854085 25.422922 0.086699 5.341404 2.519153 -5.924295 
0.344417 2.539219 0.997708 -1.384231 -0.222852 87.883521 -3.926184 -0.925960 1.456935 -1.521683 -9.824052 5.142853 7.088645 9.518544 -19.758436 0.000000 -0.000000 0.000000 1.771666 -2.040107 -2.545310 0.479309 -0.431102 12.491776 2.748268 -9.899651 -9.581440 0.000000 -0.000000 0.000000 0.270700 1.157024 6.647992 0.403437 -1.316806 -0.661536 0.375483 -1.375029 2.969397 1.842366 3.015210 -13.371628 0.945316 -2.321315 -5.139335 -21.732792 1.393768 1.776672 -53.012240 -3.980269 10.193237 4.279693 -32.543703 18.804143 -3.965787 -6.821710 -0.872432 22.522429 2.186754 -1.556406 54.681533 5.367232 12.262648 -9.907498 25.127598 0.009442 5.647544 2.384486 -6.250597 
0.343568 2.539060 0.997621 -1.326144 -0.263796 87.984858 -3.922220 -0.969723 1.382985 -1.508498 -9.903850 5.089568 7.091622 9.547428 -19.757001 0.000000 -0.000000 0.000000 1.801819 -2.024712 -2.714235 0.454874 -0.480433 12.633004 2.769240 -9.925330 -9.684324 0.000000 -0.000000 0.000000 0.175915 1.114789 6.873510 0.396434 -1.293921 -0.844924 0.419818 -1.354861 3.072996 1.745949 3.165288 -13.527229 0.931217 -2.288877 -5.145619 -21.625122 1.457697 1.726578 -52.725191 -4.129180 10.113303 4.393404 -33.083465 18.522540 -3.778254 -6.888818 -1.091918 22.669272 2.129991 -1.524977 54.843390 5.155747 12.357574 -9.777439 24.978173 0.162791 5.648958 2.439184 -6.194372 
0.342765 2.538768 0.997564 -1.286324 -0.305304 88.134745 -3.905564 -0.979811 1.251498 -1.524193 -9.981046 5.065157 7.114726 9.566669 -19.757554 0.000000 -0.000000 0.000000 1.800840 -1.980877 -2.903433 0.468055 -0.537971 12.736690 2.785425 -9.914069 -9.755702 0.000000 -0.000000 0.000000 0.104882 1.069509 7.190359 0.401372 -1.242330 -1.218609 0.466964 -1.383190 2.997387 1.636945 3.245347 -13.327580 0.903548 -2.206717 -5.113287 -21.574188 1.540435 1.851664 -52.496044 -4.113072 10.054616 4.438913 -33.612312 18.422044 -3.653153 -6.983236 -1.278265 22.790324 2.008535 -1.275478 55.011369 4.851539 12.417060 -9.647118 24.859089 0.357490 5.577157 2.555809 -6.156551 
0.341853 2.538304 0.997547 -1.238888 -0.341936 88.340531 -3.914292 -1.002068 1.032876 -1.495398 -10.016029 5.109902 7.139176 9.553556 -19.792220 0.000000 -0.000000 0.000000 1.845066 -1.943229 -3.119616 0.437616 -0.603967 12.800616 2.806303 -9.893160 -9.868542 0.000000 -0.000000 0.000000 0.089209 0.985633 7.816852 0.398762 -1.163835 -1.945639 0.526724 -1.503797 2.805200 1.488229 3.340274 -13.025303 0.839136 -2.080578 -5.026726 -21.670834 1.824388 1.977196 -52.207479 -3.887666 10.057529 4.264286 -34.286296 18.652400 -3.544709 -7.106156 -1.232279 23.042702 1.680445 -0.971089 55.057434 4.398083 12.480461 -9.351500 24.815067 0.688021 5.551289 2.734803 -5.987166 
0.341194 2.537963 0.997363 -1.271966 -0.402401 88.325231 -3.958875 -1.075468 1.064479 -1.483246 -9.985751 5.125085 7.144129 9.605417 -19.848678 0.000000 -0.000000 0.000000 1.839162 -1.921905 -3.155201 0.457729 -0.510601 12.939801 2.718773 -10.004598 -10.006035 0.000000 -0.000000 0.000000 0.027178 0.966677 7.512536 0.457408 -1.288976 -1.257787 0.519265 -1.458661 3.133660 1.399836 3.540195 -13.479578 0.740932 -2.037152 -5.053816 -21.617680 1.703000 1.934320 -52.213716 -4.132215 10.102965 4.285695 -34.678896 18.605692 -3.550809 -7.161759 -1.372039 23.177925 1.795706 -1.040440 55.101492 4.427145 12.559644 -9.290283 24.729920 0.714102 5.764173 2.776867 -5.957488 
0.340589 2.537276 0.997177 -1.390121 -0.456997 88.406111 -3.985004 -1.120835 1.020403 -1.493986 -9.955916 5.134028 7.175104 9.685544 -19.893783 0.000000 -0.000000 0.000000 1.824807 -1.844565 -3.344036 0.488979 -0.448297 13.187075 2.665574 -10.073376 -10.140812 0.000000 -0.000000 0.000000 0.013761 0.912476 7.369274 0.490081 -1.341245 -0.943195 0.498926 -1.418672 3.385524 1.346985 3.701284 -13.841823 0.631970 -1.963928 -4.961885 -21.551259 1.763711 1.904680 -52.318912 -4.177762 10.219474 4.138187 -35.121455 18.832507 -3.550065 -7.246084 -1.560594 23.232469 1.740059 -1.092891 55.163380 4.333120 12.678284 -9.195490 24.778615 0.847273 5.913721 2.860996 -6.001416 
0.339963 2.536361 0.996956 -1.526379 -0.521018 88.597063 -4.049747 -1.131659 0.872058 -1.470408 -9.951659 5.147312 7.266384 9.777655 -19.921478 0.000000 -0.000000 0.000000 1.816000 -1.738091 -3.668424 0.477479 -0.480661 13.488262 2.643180 -10.045442 -10.284222 0.000000 -0.000000 0.000000 -0.007294 0.848090 7.717359 0.526872 -1.252985 -1.454426 0.534678 -1.494125 3.182961 1.289263 3.730158 -13.248863 0.556174 -1.767227 -4.926704 -21.617310 1.957683 2.189197 -52.390621 -3.791635 10.343230 3.822464 -35.608675 19.303645 -3.537353 -7.289974 -1.622476 23.305508 1.459633 -0.719982 55.145777 3.988327 12.677552 -9.065806 25.009876 1.023989 5.895292 2.964073 -6.070176 
0.339268 2.535219 0.996623 -1.668275 -0.610914 88.651815 -4.152000 -1.116595 0.899261 -1.427517 -9.964227 5.142671 7.326843 9.866592 -20.010975 0.000000 -0.000000 0.000000 1.825162 -1.659119 -3.862366 0.421620 -0.423552 13.852000 2.566911 -10.076529 -10.534268 0.000000 -0.000000 0.000000 -0.042966 0.762417 7.824506 0.552794 -1.247422 -1.496075 0.534012 -1.499029 3.294426 1.291668 3.954863 -13.272814 0.454865 -1.624517 -4.852986 -21.700048 2.106873 2.248506 -52.443210 -3.603677 10.500704 3.471266 -36.004918 19.775768 -3.473003 -7.305165 -1.567877 23.469340 1.302153 -0.656091 55.051789 3.840250 12.723128 -8.974230 25.175590 1.096296 5.857024 3.026808 -6.060128 
0.338504 2.533910 0.996231 -1.788437 -0.715887 88.684589 -4.234362 -1.112488 0.947993 -1.433284 -9.969463 5.179010 7.384205 9.946793 -20.126058 0.000000 -0.000000 0.000000 1.830591 -1.502923 -4.038596 0.376799 -0.361395 14.269710 2.495797 -10.228979 -10.808702 0.000000 -0.000000 0.000000 -0.096328 0.681474 7.900029 0.591712 -1.215590 -1.472639 0.540930 -1.550337 3.406663 1.282941 4.107335 -13.306904 0.297802 -1.489795 -4.767922 -21.791635 2.240954 2.282317 -52.522488 -3.436131 10.657541 3.092751 -36.271827 20.326619 -3.497533 -7.351605 -1.488220 23.564763 1.170537 -0.648516 54.979697 3.712511 12.799749 -8.913694 25.331873 1.152072 5.820058 3.091873 -6.038986 
0.337702 2.532469 0.995631 -1.850528 -0.855407 88.656592 -4.347578 -1.136353 1.057109 -1.460333 -10.025995 5.239274 7.447225 10.060994 -20.281053 0.000000 -0.000000 0.000000 1.790730 -1.348714 -4.241156 0.368223 -0.311355 14.901120 2.372868 -10.436890 -11.232354 0.000000 -0.000000 0.000000 -0.172254 0.588917 7.733981 0.640076 -1.252570 -1.097208 0.504886 -1.575156 3.631772 1.294671 4.342294 -13.499995 0.105459 -1.374245 -4.645843 -21.842389 2.236380 2.304468 -52.618729 -3.404367 10.810544 2.816451 -36.424115 20.733258 -3.582102 -7.465024 -1.476052 23.656001 1.178221 -0.705415 54.918248 3.731608 12.868040 -8.929847 25.387500 1.084684 5.826375 3.141641 -6.084139 
